<?xml version="1.0" standalone="no"?>
<!DOCTYPE svg PUBLIC "-//W3C//DTD SVG 20010904//EN"
 "http://www.w3.org/TR/2001/REC-SVG-20010904/DTD/svg10.dtd">
<svg version="1.0" xmlns="http://www.w3.org/2000/svg"
 width="800.000000pt" height="800.000000pt" viewBox="0 0 800.000000 800.000000"
 preserveAspectRatio="xMidYMid meet">
<metadata>
Created by potrace 1.14, written by Peter Selinger 2001-2017
</metadata>
<g transform="translate(0.000000,800.000000) scale(0.100000,-0.100000)"
fill="#000000" stroke="none">
<path d="M1839 7996 c-2 -2 -33 -7 -67 -10 -218 -23 -466 -97 -675 -202 -84
-43 -226 -130 -282 -173 -22 -17 -53 -41 -69 -54 -64 -49 -178 -157 -236 -223
-62 -71 -118 -143 -145 -184 -17 -25 -32 -47 -35 -50 -14 -12 -103 -173 -140
-254 -88 -187 -158 -434 -178 -626 -9 -88 -9 -4347 0 -4435 8 -76 15 -126 24
-165 3 -14 8 -36 11 -50 13 -71 70 -252 110 -345 39 -90 115 -240 125 -243 4
-2 8 -8 8 -13 0 -13 81 -133 92 -137 4 -2 8 -10 8 -18 0 -8 4 -14 8 -14 4 0
15 -12 24 -28 37 -60 215 -242 329 -335 84 -69 254 -174 374 -232 165 -81 335
-137 517 -172 l143 -28 2185 0 c1202 0 2214 3 2250 7 104 10 315 57 409 90 91
32 249 96 266 109 6 4 37 21 70 39 71 38 236 147 283 187 141 119 240 218 311
311 11 15 35 45 52 67 185 240 334 617 376 955 10 81 11 4361 1 4450 -9 75
-16 125 -24 160 -3 14 -8 36 -11 50 -7 41 -33 129 -65 225 -32 95 -154 358
-169 363 -5 2 -9 8 -9 13 0 13 -81 133 -92 137 -4 2 -8 10 -8 18 0 8 -4 14 -8
14 -4 0 -15 12 -24 28 -24 40 -163 189 -244 262 -108 98 -276 214 -394 274
-41 20 -78 40 -84 45 -13 10 -236 95 -281 106 -16 5 -34 10 -40 12 -14 5 -230
51 -280 59 -41 8 -4408 17 -4416 10z"/>
</g>
</svg>
